<?xml version="1.0" encoding="UTF-8" standalone="no"?>
<!-- Created with Inkscape (http://www.inkscape.org/) -->

<svg
   xmlns:svg="http://www.w3.org/2000/svg"
   xmlns="http://www.w3.org/2000/svg"
   xmlns:sodipodi="http://sodipodi.sourceforge.net/DTD/sodipodi-0.dtd"
   xmlns:inkscape="http://www.inkscape.org/namespaces/inkscape"
   width="836.64783"
   height="836.64795"
   id="svg2"
   version="1.1"
   inkscape:version="0.48.2 r9819"
   sodipodi:docname="rr_logo.svg"
   inkscape:export-filename="/Users/iroro/Downloads/ruohorecords_ART/drawing.png"
   inkscape:export-xdpi="90"
   inkscape:export-ydpi="90">
  <defs
     id="defs4" />
  <sodipodi:namedview
     id="base"
     pagecolor="#ffffff"
     bordercolor="#666666"
     borderopacity="1.0"
     inkscape:pageopacity="0.0"
     inkscape:pageshadow="2"
     inkscape:zoom="0.78239463"
     inkscape:cx="214.60283"
     inkscape:cy="467.02368"
     inkscape:document-units="px"
     inkscape:current-layer="g5462"
     showgrid="false"
     inkscape:window-width="1920"
     inkscape:window-height="1103"
     inkscape:window-x="0"
     inkscape:window-y="22"
     inkscape:window-maximized="1"
     showguides="true"
     inkscape:guide-bbox="true"
     showborder="false"
     inkscape:showpageshadow="false"
     fit-margin-top="0"
     fit-margin-left="0"
     fit-margin-right="0"
     fit-margin-bottom="0">
    <sodipodi:guide
       orientation="0,1"
       position="425.48321,836.54512"
       id="guide5468" />
    <sodipodi:guide
       orientation="0,1"
       position="356.50769,0.34958386"
       id="guide5470" />
    <sodipodi:guide
       orientation="1,0"
       position="-0.042690888,460.89383"
       id="guide5472" />
    <sodipodi:guide
       orientation="1,0"
       position="836.15285,374.93972"
       id="guide5474" />
    <sodipodi:guide
       orientation="0,1"
       position="221.36244,414.31833"
       id="guide4167" />
    <sodipodi:guide
       orientation="1,0"
       position="422.74166,545.11102"
       id="guide4169" />
    <sodipodi:guide
       orientation="0,1"
       position="536.0169,196.36824"
       id="guide6894" />
  </sodipodi:namedview>
  <g
     style="display:inline"
     inkscape:label="Left Leg"
     id="g4341"
     inkscape:groupmode="layer"
     transform="translate(61.504696,-206.51337)">
    <path
       style="fill:none;stroke:#000000;stroke-width:32.94599915;stroke-linecap:butt;stroke-linejoin:miter;stroke-miterlimit:4;stroke-opacity:1;stroke-dasharray:none;marker-end:none"
       d="m 212.492,532.51606 0,314.10199 0,-14.95817 0,0"
       id="path4527"
       inkscape:connector-curvature="0" />
  </g>
  <g
     inkscape:groupmode="layer"
     id="layer3"
     inkscape:label="Right Leg"
     style="display:inline"
     transform="translate(61.504696,-206.51337)">
    <path
       style="fill:none;stroke:#000000;stroke-width:32.13779449;stroke-linecap:butt;stroke-linejoin:miter;stroke-miterlimit:4;stroke-opacity:1;stroke-dasharray:none;marker-start:none;marker-mid:none;marker-end:none"
       d="M 256.00591,634.76549 457.93943,835.3383"
       id="path4339"
       inkscape:connector-curvature="0" />
    <path
       style="fill:#000000;fill-opacity:1;stroke:none"
       d="m 447.34159,826.54092 c -0.0391,0.46151 -0.7206,20.21648 -0.7206,20.21648 l 47.49691,0.0357 c -24.83792,-22.67357 -24.926,-22.91986 -24.90081,-22.90136 0.007,0.005 -16.82955,3.32158 -17.24091,3.25902 z"
       id="path6889"
       inkscape:connector-curvature="0"
       sodipodi:nodetypes="cccscc" />
  </g>
  <g
     style="display:inline"
     inkscape:label="Rojo"
     id="g5478"
     inkscape:groupmode="layer"
     transform="translate(61.504696,-206.51337)">
    <path
       sodipodi:type="arc"
       style="fill:#ff0000;fill-opacity:1;fill-rule:evenodd;stroke:none"
       id="path5482"
       sodipodi:cx="322.06262"
       sodipodi:cy="503.74152"
       sodipodi:rx="131.05348"
       sodipodi:ry="123.09477"
       d="m 453.1161,503.74152 a 131.05348,123.09477 0 1 1 -262.10696,0 131.05348,123.09477 0 1 1 262.10696,0 z"
       transform="matrix(1.0167203,0,0,1.1486294,26.620601,-47.517154)" />
  </g>
  <g
     inkscape:groupmode="layer"
     id="g5462"
     inkscape:label="record circles 1"
     style="display:inline"
     transform="translate(61.504696,-206.51337)">
    <path
       inkscape:connector-curvature="0"
       d="m 352.50727,531.96079 c -0.79624,-4.1791 1.96574,-8.21606 6.16914,-9.01674 4.20329,-0.801 8.25629,1.93768 9.05242,6.11671 0.79613,4.17909 -1.96584,8.2161 -6.1692,9.01689 -4.2033,0.801 -8.25633,-1.9379 -9.05236,-6.11686 z M 272.2175,494.51065 c -2.68328,-14.08234 6.62454,-27.68597 20.78869,-30.38445 14.16428,-2.69841 27.8215,6.52977 30.5044,20.6123 2.68261,14.08219 -6.62447,27.68572 -20.78857,30.3842 -14.16428,2.69841 -27.82162,-6.52988 -30.50452,-20.61205 z m 82.03086,-30.36954 c -2.68315,-14.08235 6.62458,-27.68593 20.78868,-30.38445 14.16424,-2.69841 27.82141,6.52986 30.5044,20.61227 2.68265,14.08232 -6.62453,27.68586 -20.78857,30.38447 -14.16432,2.69834 -27.82173,-6.53002 -30.50451,-20.61229 z m 54.5196,67.46929 c -2.68263,-14.08237 6.62467,-27.68598 20.78877,-30.38454 14.16417,-2.69832 27.82151,6.52997 30.50438,20.61225 2.6831,14.08223 -6.62451,27.68588 -20.78879,30.38445 -14.16419,2.6984 -27.82124,-6.52989 -30.50436,-20.61216 z M 276.5211,581.92162 c -2.68315,-14.08228 6.62451,-27.68602 20.78862,-30.38447 14.1643,-2.69837 27.82157,6.52995 30.50451,20.61234 2.68265,14.0823 -6.62451,27.68572 -20.78873,30.38424 -14.16423,2.69841 -27.8215,-6.52983 -30.5044,-20.61211 z m 84.45034,22.44346 c -2.68319,-14.08237 6.62458,-27.68602 20.78866,-30.38454 14.16426,-2.69836 27.82153,6.52993 30.50443,20.61232 2.68323,14.08216 -6.62449,27.6859 -20.78869,30.38438 -14.16423,2.69832 -27.8215,-6.52997 -30.5044,-20.61216 z"
       style="fill:#000000;fill-opacity:1;fill-rule:evenodd;stroke:#000800;stroke-width:1.66150725px;stroke-linecap:butt;stroke-linejoin:miter;stroke-opacity:1"
       id="path5464" />
  </g>
  <g
     inkscape:groupmode="layer"
     id="layer2"
     inkscape:label="Circles"
     style="display:inline"
     transform="translate(61.504696,-206.51337)">
    <path
       sodipodi:type="arc"
       style="fill:none;stroke:#000000;stroke-width:5.41821575;stroke-linecap:butt;stroke-linejoin:miter;stroke-miterlimit:4;stroke-opacity:1;stroke-dasharray:none"
       id="path3135"
       sodipodi:cx="286.72015"
       sodipodi:cy="515.13397"
       sodipodi:rx="70.935951"
       sodipodi:ry="68.951729"
       d="m 357.65611,515.13397 a 70.935951,68.951729 0 1 1 -141.87191,0 70.935951,68.951729 0 1 1 141.87191,0 z"
       transform="matrix(5.6772878,0,0,5.8406636,-1270.9736,-2383.8869)" />
    <path
       sodipodi:type="arc"
       style="fill:none;stroke:#000000;stroke-width:6.5779953;stroke-linecap:butt;stroke-linejoin:miter;stroke-miterlimit:4;stroke-opacity:1;stroke-dasharray:none"
       id="path3913"
       sodipodi:cx="298.12943"
       sodipodi:cy="483.88245"
       sodipodi:rx="29.267281"
       sodipodi:ry="28.275169"
       d="m 327.39671,483.88245 a 29.267281,28.275169 0 1 1 -58.53457,0 29.267281,28.275169 0 1 1 58.53457,0 z"
       transform="matrix(4.9674663,0,0,5.1417635,-1122.9548,-1957.6205)" />
  </g>
</svg>
